# xmcd CD database file
#
# Track frame offsets:
#	182
#	14680
#	27787
#	42242
#	57262
#	71462
#	86432
#	101055
#	113930
#	128022
#	141610
#	156255
#	170427
#	183122
#	196032
#	209130
#
# Disc length: 2962 seconds
#
# Revision: 0
# Processed by: cddbd v1.5PL3 Copyright (c) Steve Scherf et al.
# Submitted via: CDex 1.51
#
DISCID=e20b9010
DTITLE=The Legends Collection - Count Basie
DYEAR=1996
DGENRE=Blues
TTITLE0=Honeysuckle Rose
TTITLE1=Swinging at the Daisy Chain
TTITLE2=Taxi War Dance
TTITLE3=John's Idea
TTITLE4=Topsy
TTITLE5=Every Tub
TTITLE6=Swinging The Blues
TTITLE7=Jumpin' at the Woodside
TTITLE8=Boogie Woogie
TTITLE9=How long Blues
TTITLE10=Panassi Stomp
TTITLE11=Jive at Five
TTITLE12=Lady be good
TTITLE13=Doggin' around
TTITLE14=Taxas Shuffle
TTITLE15=One o'Clock Jump
EXTD=YEAR: 1996
EXTT0=
EXTT1=
EXTT2=
EXTT3=
EXTT4=
EXTT5=
EXTT6=
EXTT7=
EXTT8=
EXTT9=
EXTT10=
EXTT11=
EXTT12=
EXTT13=
EXTT14=
EXTT15=
PLAYORDER=
